<?xml version="1.0" standalone="no"?>
<!DOCTYPE svg PUBLIC "-//W3C//DTD SVG 20010904//EN"
 "http://www.w3.org/TR/2001/REC-SVG-20010904/DTD/svg10.dtd">
<svg version="1.0" xmlns="http://www.w3.org/2000/svg"
 width="300.000000pt" height="300.000000pt" viewBox="0 0 300.000000 300.000000"
 preserveAspectRatio="xMidYMid meet">
<metadata>
Created by potrace 1.14, written by Peter Selinger 2001-2017
</metadata>
<g transform="translate(0.000000,300.000000) scale(0.100000,-0.100000)"
fill="#000000" stroke="none">
<path d="M1121 2788 c1 -81 4 -94 25 -115 13 -12 29 -23 36 -23 18 0 19 -489
1 -507 -6 -7 -10 -28 -7 -45 4 -33 3 -33 -41 -33 l-45 0 0 37 c0 37 -1 38 -37
39 -45 1 -115 1 -125 0 -4 -1 -6 -47 -5 -104 2 -112 15 -147 54 -150 21 -1 21
-2 20 -211 l-2 -210 -30 -2 c-46 -2 -47 -3 -45 -26 5 -60 2 -64 -42 -63 l-43
0 2 45 2 45 -82 0 -82 0 -1 -117 c-2 -111 -1 -117 22 -137 15 -13 38 -21 59
-21 21 0 35 -5 36 -12 1 -7 2 -133 3 -280 l1 -268 -38 0 -38 0 1 -52 c3 -105
7 -98 -60 -98 l-60 0 0 -156 c0 -156 0 -157 26 -179 l25 -22 847 0 c820 0 848
0 875 19 l27 19 0 160 0 159 -65 0 -65 0 0 75 0 75 -28 0 -28 0 0 280 0 280
36 0 c20 1 45 9 60 21 23 20 25 28 27 122 1 56 0 109 -3 118 -3 12 -18 15 -77
13 -39 -1 -75 -2 -79 -3 -5 0 -8 -20 -8 -43 l0 -43 -40 -2 c-43 -3 -40 -6 -44
62 -1 22 -5 29 -18 27 -9 -1 -20 3 -24 10 -5 7 -9 102 -9 212 0 191 0 199 20
206 41 16 46 33 43 146 l-3 108 -52 -1 c-118 -2 -114 -1 -112 -25 4 -49 0 -54
-41 -54 -40 0 -40 0 -40 38 0 21 -5 38 -10 38 -7 0 -9 88 -8 257 3 240 4 256
21 259 36 5 46 35 47 132 l0 93 -72 -3 c-70 -3 -73 -4 -73 -28 0 -21 -5 -26
-32 -28 -31 -3 -33 -1 -33 27 l0 31 -73 0 -73 0 0 -27 c1 -24 -3 -28 -31 -31
-33 -3 -37 2 -34 41 2 15 -7 17 -73 17 l-76 0 0 -31 c0 -28 -2 -30 -32 -27
-29 3 -33 7 -32 31 l1 27 -74 0 -74 0 2 -92z"/>
</g>
</svg>
